<svg aria-hidden="true" style="width:0;height:0;position:absolute;overflow:hidden" xmlns="http://www.w3.org/2000/svg"><defs><symbol id="icon-logo" viewBox="0 0 202 32"><path fill="#ed1d24" style="fill:var(--color1,#ed1d24)" d="M0 .5h98v31H0V.5z"/><path fill="#fafafa" style="fill:var(--color2,#fafafa)" d="M4.336 26.5V6.9h4.48l1.624 10.08L12.036 6.9H16.6v19.628h-3.64v-9.464L11.364 26.5H9.488l-1.596-9.352V26.5H4.336zM24.499 6.9l2.968 19.6h-3.556l-.392-3.024h-2.744l-.42 3.024h-3.5l2.94-19.6h4.704zm-1.344 13.44-1.008-8.232-.952 8.232h1.96zM31.611 6.9c.653 0 1.269.103 1.848.308a4.301 4.301 0 0 1 1.596.98c.467.429.849.989 1.148 1.68.317.691.523 1.531.616 2.52.131 1.213.093 2.231-.112 3.052-.187.803-.42 1.447-.7 1.932-.317.597-.7 1.064-1.148 1.4l2.324 7.728h-3.584l-1.708-6.58-.784.14v6.44h-3.528l.028-19.6h4.004zm-.504 9.688c.429-.037.784-.14 1.064-.308.28-.187.513-.42.7-.7s.317-.597.392-.952c.075-.355.112-.719.112-1.092 0-.392-.037-.775-.112-1.148a3.407 3.407 0 0 0-.364-1.036 1.953 1.953 0 0 0-.7-.756c-.28-.187-.644-.28-1.092-.28v6.272zM39.863 6.9l1.568 11.816L43.083 6.9h3.528l-3.108 19.6h-4.144L36.223 6.9h3.64zM46.833 26.5V6.9h6.58v3.472h-2.968v4.424h2.996v3.64h-3.164v4.424h3.192v3.64h-6.636zM58.041 6.872v16.1h3.024v3.556h-6.496V6.9l3.472-.028zM61.925 16.7c0-1.475.131-2.809.392-4.004.261-1.213.625-2.249 1.092-3.108s1.036-1.521 1.708-1.988 1.409-.7 2.212-.7c.803 0 1.531.233 2.184.7.672.467 1.241 1.129 1.708 1.988s.831 1.895 1.092 3.108c.261 1.195.392 2.529.392 4.004s-.131 2.819-.392 4.032c-.261 1.195-.625 2.221-1.092 3.08s-1.036 1.521-1.708 1.988c-.653.467-1.381.7-2.184.7s-1.54-.233-2.212-.7c-.672-.467-1.241-1.129-1.708-1.988s-.831-1.885-1.092-3.08c-.261-1.213-.392-2.557-.392-4.032zm3.472.056c0 .933.047 1.783.14 2.548s.224 1.428.392 1.988c.168.541.364.961.588 1.26.243.299.504.448.784.448s.532-.149.756-.448c.243-.299.439-.719.588-1.26.168-.56.299-1.223.392-1.988s.14-1.615.14-2.548-.047-1.783-.14-2.548c-.093-.784-.224-1.447-.392-1.988-.149-.541-.345-.961-.588-1.26-.224-.299-.476-.448-.756-.448s-.541.149-.784.448c-.224.299-.42.719-.588 1.26s-.299 1.204-.392 1.988c-.093.765-.14 1.615-.14 2.548zM84.241 16.812c0 .653-.009 1.353-.028 2.1 0 .728-.047 1.456-.14 2.184-.075.709-.215 1.391-.42 2.044s-.513 1.232-.924 1.736c-.392.485-.905.877-1.54 1.176s-1.419.448-2.352.448c-1.288 0-2.296-.224-3.024-.672-.709-.448-1.241-1.083-1.596-1.904-.336-.84-.541-1.848-.616-3.024a83.025 83.025 0 0 1-.084-3.92V6.872h3.444v9.94c.019 1.157.093 2.184.224 3.08.056.392.131.775.224 1.148.093.355.205.681.336.98.149.28.308.513.476.7a.902.902 0 0 0 .616.252c.28 0 .513-.084.7-.252.205-.187.373-.42.504-.7.149-.299.261-.625.336-.98.093-.373.168-.756.224-1.148.112-.896.159-1.923.14-3.08V6.9h3.5v9.912zM93.176 6.9c.019 0 .028.187.028.56v1.176c0 .523-.009 1.111-.028 1.764-.579 0-1.167.056-1.764.168a5.693 5.693 0 0 0-1.568.476 3.798 3.798 0 0 0-1.12.756 1.47 1.47 0 0 0-.42 1.036c0 .336.121.625.364.868.261.243.569.485.924.728.373.243.775.513 1.204.812.448.28.849.616 1.204 1.008.373.392.681.868.924 1.428.261.56.392 1.241.392 2.044 0 1.195-.224 2.221-.672 3.08a5.89 5.89 0 0 1-1.792 2.1c-.747.541-1.624.943-2.632 1.204s-2.072.392-3.192.392V23c.336 0 .775-.056 1.316-.168s1.064-.299 1.568-.56c.523-.261.971-.607 1.344-1.036s.551-.961.532-1.596c0-.317-.121-.588-.364-.812a4.784 4.784 0 0 0-.924-.7 39.911 39.911 0 0 0-1.148-.756 7.303 7.303 0 0 1-1.176-1.008 5.644 5.644 0 0 1-.896-1.456c-.224-.56-.336-1.251-.336-2.072 0-.859.243-1.652.728-2.38.504-.728 1.148-1.353 1.932-1.876s1.661-.933 2.632-1.232a10.118 10.118 0 0 1 2.94-.448zM109.784 6.9l2.968 19.6h-3.556l-.392-3.024h-2.744l-.42 3.024h-3.5l2.94-19.6h4.704zm-1.344 13.44-1.008-8.232-.952 8.232h1.96zM116.197 6.872c.896 0 1.67.168 2.324.504s1.213.784 1.68 1.344c.466.56.849 1.213 1.148 1.96.298.728.532 1.484.7 2.268s.28 1.577.336 2.38c.074.784.112 1.512.112 2.184 0 1.493-.159 2.753-.476 3.78-.299 1.027-.691 1.867-1.176 2.52-.467.653-.962 1.167-1.484 1.54a6.283 6.283 0 0 1-3.164 1.12h-3.444l.056-19.6h3.388zm.056 16.632.196-.028c.13-.019.298-.084.504-.196.224-.131.457-.327.7-.588.261-.261.494-.635.7-1.12.224-.485.401-1.092.532-1.82.149-.747.224-1.661.224-2.744 0-.28-.01-.644-.028-1.092a13.923 13.923 0 0 0-.14-1.428 10.845 10.845 0 0 0-.28-1.512 6.017 6.017 0 0 0-.532-1.372 2.772 2.772 0 0 0-.784-.98 1.75 1.75 0 0 0-1.148-.392l.056 13.272zM127.035 6.9l1.568 11.816L130.255 6.9h3.528l-3.108 19.6h-4.144l-3.136-19.6h3.64zM134.005 26.5V6.9h6.58v3.472h-2.968v4.424h2.996v3.64h-3.164v4.424h3.192v3.64h-6.636zM141.713 26.5V6.9h3.5l2.996 10.136V6.9h3.584v19.6h-3.584l-3.024-9.352v9.38l-3.472-.028zM163.601 6.9v3.556h-3.528V26.5h-3.444V10.456h-3.78V6.9h10.752zM175.788 16.812c0 .653-.009 1.353-.028 2.1 0 .728-.047 1.456-.14 2.184-.075.709-.215 1.391-.42 2.044s-.513 1.232-.924 1.736c-.392.485-.905.877-1.54 1.176s-1.419.448-2.352.448c-1.288 0-2.296-.224-3.024-.672-.709-.448-1.241-1.083-1.596-1.904-.336-.84-.541-1.848-.616-3.024a83.025 83.025 0 0 1-.084-3.92V6.872h3.444v9.94c.019 1.157.093 2.184.224 3.08.056.392.131.775.224 1.148.093.355.205.681.336.98.149.28.308.513.476.7a.902.902 0 0 0 .616.252c.28 0 .513-.084.7-.252.205-.187.373-.42.504-.7.149-.299.261-.625.336-.98.093-.373.168-.756.224-1.148.112-.896.159-1.923.14-3.08V6.9h3.5v9.912zM180.635 6.9c.653 0 1.269.103 1.848.308a4.301 4.301 0 0 1 1.596.98c.467.429.849.989 1.148 1.68.317.691.523 1.531.616 2.52.131 1.213.093 2.231-.112 3.052-.187.803-.42 1.447-.7 1.932-.317.597-.7 1.064-1.148 1.4l2.324 7.728h-3.584l-1.708-6.58-.784.14v6.44h-3.528l.028-19.6h4.004zm-.504 9.688c.429-.037.784-.14 1.064-.308.28-.187.513-.42.7-.7s.317-.597.392-.952c.075-.355.112-.719.112-1.092 0-.392-.037-.775-.112-1.148a3.407 3.407 0 0 0-.364-1.036 1.953 1.953 0 0 0-.7-.756c-.28-.187-.644-.28-1.092-.28v6.272z"/><path fill="#fafafa" style="fill:var(--color2,#fafafa)" d="M185.247 26.5V6.9h6.58v3.472h-2.968v4.424h2.996v3.64h-3.164v4.424h3.192v3.64h-6.636zM201.047 6.9c.019 0 .028.187.028.56v1.176c0 .523-.009 1.111-.028 1.764-.578 0-1.166.056-1.764.168a5.704 5.704 0 0 0-1.568.476 3.798 3.798 0 0 0-1.12.756 1.47 1.47 0 0 0-.42 1.036c0 .336.122.625.364.868.262.243.57.485.924.728.374.243.775.513 1.204.812.448.28.85.616 1.204 1.008.374.392.682.868.924 1.428.262.56.392 1.241.392 2.044 0 1.195-.224 2.221-.672 3.08a5.88 5.88 0 0 1-1.792 2.1c-.746.541-1.624.943-2.632 1.204s-2.072.392-3.192.392V23c.336 0 .775-.056 1.316-.168a6.064 6.064 0 0 0 1.568-.56 4.315 4.315 0 0 0 1.344-1.036c.374-.429.551-.961.532-1.596 0-.317-.121-.588-.364-.812a4.723 4.723 0 0 0-.924-.7 38.565 38.565 0 0 0-1.148-.756 7.39 7.39 0 0 1-1.176-1.008 5.671 5.671 0 0 1-.896-1.456c-.224-.56-.336-1.251-.336-2.072 0-.859.243-1.652.728-2.38.504-.728 1.148-1.353 1.932-1.876s1.662-.933 2.632-1.232c.99-.299 1.97-.448 2.94-.448z"/><path fill="none" stroke="#fafafa" style="stroke:var(--color2,#fafafa)" d="M104 1.5h96M104 31.5h96"/></symbol><symbol id="icon-arrow-down" viewBox="0 0 32 32"><path fill="none" stroke="#fafafa" style="stroke:var(--color2,#fafafa)" stroke-linejoin="round" stroke-linecap="round" stroke-width="3.556" d="m8 12 8 8 8-8"/></symbol><symbol id="icon-arrow" viewBox="0 0 34 32"><path d="M25.588 15.206 15.275 25.519l-1.097-1.097 10.313-10.313H14.178v-1.552H27.14v12.962h-1.552V15.206z"/></symbol><symbol id="icon-search" viewBox="0 0 32 32"><path fill="none" stroke="#fafafa" style="stroke:var(--color2,#fafafa)" stroke-linejoin="round" stroke-linecap="round" stroke-width="3.556" d="M14.667 25.333c5.891 0 10.667-4.776 10.667-10.667S20.558 3.999 14.667 3.999 4 8.775 4 14.666s4.776 10.667 10.667 10.667zM28 28l-5.8-5.8"/></symbol><symbol id="icon-facebook" viewBox="0 0 16 32"><path d="M14.512.007 10.895 0c-4.064 0-6.69 3.091-6.69 7.875v3.631H.568c-.314 0-.569.292-.569.653v5.261c0 .361.255.652.569.652h3.637v13.275c0 .36.254.652.569.652h4.745c.314 0 .569-.292.569-.652V18.072h4.252c.314 0 .569-.292.569-.652l.002-5.261c0-.173-.06-.339-.167-.461s-.252-.191-.402-.191h-4.254V8.429c0-1.479.307-2.23 1.987-2.23l2.437-.001c.314 0 .568-.292.568-.652V.661c0-.36-.254-.652-.568-.652z"/></symbol><symbol id="icon-instagram" viewBox="0 0 32 32"><path d="M16.316 32h-.319c-2.508.006-4.826-.058-7.08-.195-2.066-.126-3.953-.84-5.455-2.065-1.45-1.182-2.44-2.781-2.942-4.75-.438-1.715-.461-3.398-.483-5.026a343.853 343.853 0 0 1-.036-3.96c.003-1.414.02-2.798.036-3.966.022-1.628.045-3.311.483-5.026.503-1.97 1.493-3.568 2.942-4.75C4.965 1.037 6.851.323 8.918.197 11.172.06 13.49-.004 16.004.002c2.509-.005 4.826.058 7.08.195 2.066.126 3.953.84 5.455 2.065 1.45 1.182 2.44 2.781 2.943 4.75.437 1.715.461 3.398.483 5.026.016 1.168.033 2.553.036 3.96v.006c-.003 1.408-.02 2.792-.036 3.96-.022 1.628-.045 3.311-.483 5.026-.503 1.97-1.493 3.568-2.943 4.75-1.502 1.225-3.389 1.939-5.455 2.065-2.159.131-4.376.195-6.768.195zm-.319-2.5c2.468.006 4.733-.056 6.934-.19 1.563-.095 2.917-.602 4.027-1.507 1.026-.837 1.732-1.991 2.1-3.431.364-1.428.385-2.96.406-4.442.016-1.16.032-2.535.036-3.929-.004-1.394-.02-2.769-.036-3.929-.02-1.482-.041-3.015-.406-4.443-.367-1.44-1.074-2.594-2.1-3.431-1.11-.905-2.465-1.412-4.027-1.507a108.807 108.807 0 0 0-6.928-.19c-2.467-.006-4.733.056-6.934.19-1.563.095-2.917.602-4.027 1.507-1.026.837-1.732 1.991-2.1 3.431-.364 1.428-.385 2.96-.406 4.443a363.726 363.726 0 0 0-.036 3.932c.003 1.389.02 2.765.036 3.926.02 1.482.041 3.015.406 4.442.367 1.44 1.074 2.594 2.1 3.431 1.11.905 2.465 1.412 4.027 1.507 2.201.134 4.467.197 6.928.191zm-.06-5.688c-4.308 0-7.813-3.505-7.813-7.812s3.505-7.813 7.813-7.813S23.75 11.692 23.75 16s-3.505 7.812-7.813 7.812zm0-13.125c-2.929 0-5.313 2.383-5.313 5.313s2.383 5.312 5.313 5.312c2.93 0 5.313-2.383 5.313-5.312s-2.383-5.313-5.313-5.313zm8.688-5a1.875 1.875 0 1 0 0 3.75 1.875 1.875 0 0 0 0-3.75z"/></symbol><symbol id="icon-twitter" viewBox="0 0 32 32"><path d="M32 4.441c-1.19.583-2.458.97-3.78 1.158 1.36-.908 2.398-2.334 2.886-4.053a12.307 12.307 0 0 1-4.16 1.775C25.742 1.888 24.026 1 22.154 1c-3.632 0-6.556 3.295-6.556 7.335 0 .581.044 1.14.152 1.672C10.296 9.71 5.47 6.788 2.228 2.336a8.059 8.059 0 0 0-.898 3.707c0 2.54 1.17 4.791 2.914 6.095-1.054-.022-2.088-.364-2.964-.903v.08c0 3.564 2.274 6.524 5.256 7.206a5.905 5.905 0 0 1-1.72.241c-.42 0-.844-.027-1.242-.125.85 2.904 3.262 5.039 6.13 5.109-2.232 1.952-5.066 3.128-8.134 3.128-.538 0-1.054-.027-1.57-.101 2.906 2.095 6.35 3.291 10.064 3.291 12.072 0 18.672-11.178 18.672-20.868 0-.324-.01-.637-.024-.948C30.014 7.215 31.108 5.925 32 4.441z"/></symbol></defs></svg>