<svg aria-hidden="true" style="position: absolute; width: 0; height: 0; overflow: hidden;" version="1.1" xmlns="http://www.w3.org/2000/svg" xmlns:xlink="http://www.w3.org/1999/xlink">
<defs>
<symbol id="icon-logo" viewBox="0 0 202 32">
<path fill="#ed1d24" style="fill: var(--color1, #ed1d24)" d="M0 0.5h98v31h-98v-31z"></path>
<path fill="#fafafa" style="fill: var(--color2, #fafafa)" d="M4.336 26.5v-19.6h4.48l1.624 10.080 1.596-10.080h4.564v19.628h-3.64v-9.464l-1.596 9.436h-1.876l-1.596-9.352v9.352h-3.556z"></path>
<path fill="#fafafa" style="fill: var(--color2, #fafafa)" d="M24.499 6.9l2.968 19.6h-3.556l-0.392-3.024h-2.744l-0.42 3.024h-3.5l2.94-19.6h4.704zM23.155 20.34l-1.008-8.232-0.952 8.232h1.96z"></path>
<path fill="#fafafa" style="fill: var(--color2, #fafafa)" d="M31.611 6.9c0.653 0 1.269 0.103 1.848 0.308 0.597 0.205 1.129 0.532 1.596 0.98 0.467 0.429 0.849 0.989 1.148 1.68 0.317 0.691 0.523 1.531 0.616 2.52 0.131 1.213 0.093 2.231-0.112 3.052-0.187 0.803-0.42 1.447-0.7 1.932-0.317 0.597-0.7 1.064-1.148 1.4l2.324 7.728h-3.584l-1.708-6.58-0.784 0.14v6.44h-3.528l0.028-19.6h4.004zM31.107 16.588c0.429-0.037 0.784-0.14 1.064-0.308 0.28-0.187 0.513-0.42 0.7-0.7s0.317-0.597 0.392-0.952c0.075-0.355 0.112-0.719 0.112-1.092 0-0.392-0.037-0.775-0.112-1.148-0.075-0.392-0.196-0.737-0.364-1.036-0.168-0.317-0.401-0.569-0.7-0.756-0.28-0.187-0.644-0.28-1.092-0.28v6.272z"></path>
<path fill="#fafafa" style="fill: var(--color2, #fafafa)" d="M39.863 6.9l1.568 11.816 1.652-11.816h3.528l-3.108 19.6h-4.144l-3.136-19.6h3.64z"></path>
<path fill="#fafafa" style="fill: var(--color2, #fafafa)" d="M46.833 26.5v-19.6h6.58v3.472h-2.968v4.424h2.996v3.64h-3.164v4.424h3.192v3.64h-6.636z"></path>
<path fill="#fafafa" style="fill: var(--color2, #fafafa)" d="M58.041 6.872v16.1h3.024v3.556h-6.496v-19.628l3.472-0.028z"></path>
<path fill="#fafafa" style="fill: var(--color2, #fafafa)" d="M61.925 16.7c0-1.475 0.131-2.809 0.392-4.004 0.261-1.213 0.625-2.249 1.092-3.108s1.036-1.521 1.708-1.988 1.409-0.7 2.212-0.7c0.803 0 1.531 0.233 2.184 0.7 0.672 0.467 1.241 1.129 1.708 1.988s0.831 1.895 1.092 3.108c0.261 1.195 0.392 2.529 0.392 4.004s-0.131 2.819-0.392 4.032c-0.261 1.195-0.625 2.221-1.092 3.080s-1.036 1.521-1.708 1.988c-0.653 0.467-1.381 0.7-2.184 0.7s-1.54-0.233-2.212-0.7c-0.672-0.467-1.241-1.129-1.708-1.988s-0.831-1.885-1.092-3.080c-0.261-1.213-0.392-2.557-0.392-4.032zM65.397 16.756c0 0.933 0.047 1.783 0.14 2.548s0.224 1.428 0.392 1.988c0.168 0.541 0.364 0.961 0.588 1.26 0.243 0.299 0.504 0.448 0.784 0.448s0.532-0.149 0.756-0.448c0.243-0.299 0.439-0.719 0.588-1.26 0.168-0.56 0.299-1.223 0.392-1.988s0.14-1.615 0.14-2.548c0-0.933-0.047-1.783-0.14-2.548-0.093-0.784-0.224-1.447-0.392-1.988-0.149-0.541-0.345-0.961-0.588-1.26-0.224-0.299-0.476-0.448-0.756-0.448s-0.541 0.149-0.784 0.448c-0.224 0.299-0.42 0.719-0.588 1.26s-0.299 1.204-0.392 1.988c-0.093 0.765-0.14 1.615-0.14 2.548z"></path>
<path fill="#fafafa" style="fill: var(--color2, #fafafa)" d="M84.241 16.812c0 0.653-0.009 1.353-0.028 2.1 0 0.728-0.047 1.456-0.14 2.184-0.075 0.709-0.215 1.391-0.42 2.044s-0.513 1.232-0.924 1.736c-0.392 0.485-0.905 0.877-1.54 1.176s-1.419 0.448-2.352 0.448c-1.288 0-2.296-0.224-3.024-0.672-0.709-0.448-1.241-1.083-1.596-1.904-0.336-0.84-0.541-1.848-0.616-3.024-0.056-1.176-0.084-2.483-0.084-3.92v-10.108h3.444v9.94c0.019 1.157 0.093 2.184 0.224 3.080 0.056 0.392 0.131 0.775 0.224 1.148 0.093 0.355 0.205 0.681 0.336 0.98 0.149 0.28 0.308 0.513 0.476 0.7 0.187 0.168 0.392 0.252 0.616 0.252 0.28 0 0.513-0.084 0.7-0.252 0.205-0.187 0.373-0.42 0.504-0.7 0.149-0.299 0.261-0.625 0.336-0.98 0.093-0.373 0.168-0.756 0.224-1.148 0.112-0.896 0.159-1.923 0.14-3.080v-9.912h3.5v9.912z"></path>
<path fill="#fafafa" style="fill: var(--color2, #fafafa)" d="M93.176 6.9c0.019 0 0.028 0.187 0.028 0.56 0 0.355 0 0.747 0 1.176 0 0.523-0.009 1.111-0.028 1.764-0.579 0-1.167 0.056-1.764 0.168-0.579 0.093-1.101 0.252-1.568 0.476-0.448 0.205-0.821 0.457-1.12 0.756-0.28 0.299-0.42 0.644-0.42 1.036 0 0.336 0.121 0.625 0.364 0.868 0.261 0.243 0.569 0.485 0.924 0.728 0.373 0.243 0.775 0.513 1.204 0.812 0.448 0.28 0.849 0.616 1.204 1.008 0.373 0.392 0.681 0.868 0.924 1.428 0.261 0.56 0.392 1.241 0.392 2.044 0 1.195-0.224 2.221-0.672 3.080-0.429 0.84-1.027 1.54-1.792 2.1-0.747 0.541-1.624 0.943-2.632 1.204s-2.072 0.392-3.192 0.392v-3.5c0.336 0 0.775-0.056 1.316-0.168s1.064-0.299 1.568-0.56c0.523-0.261 0.971-0.607 1.344-1.036s0.551-0.961 0.532-1.596c0-0.317-0.121-0.588-0.364-0.812-0.243-0.243-0.551-0.476-0.924-0.7-0.355-0.243-0.737-0.495-1.148-0.756-0.411-0.28-0.803-0.616-1.176-1.008-0.355-0.411-0.653-0.896-0.896-1.456-0.224-0.56-0.336-1.251-0.336-2.072 0-0.859 0.243-1.652 0.728-2.38 0.504-0.728 1.148-1.353 1.932-1.876s1.661-0.933 2.632-1.232c0.989-0.299 1.969-0.448 2.94-0.448z"></path>
<path fill="#fafafa" style="fill: var(--color2, #fafafa)" d="M109.784 6.9l2.968 19.6h-3.556l-0.392-3.024h-2.744l-0.42 3.024h-3.5l2.94-19.6h4.704zM108.44 20.34l-1.008-8.232-0.952 8.232h1.96z"></path>
<path fill="#fafafa" style="fill: var(--color2, #fafafa)" d="M116.197 6.872c0.896 0 1.67 0.168 2.324 0.504s1.213 0.784 1.68 1.344c0.466 0.56 0.849 1.213 1.148 1.96 0.298 0.728 0.532 1.484 0.7 2.268s0.28 1.577 0.336 2.38c0.074 0.784 0.112 1.512 0.112 2.184 0 1.493-0.159 2.753-0.476 3.78-0.299 1.027-0.691 1.867-1.176 2.52-0.467 0.653-0.962 1.167-1.484 1.54-0.934 0.653-1.988 1.027-3.164 1.12h-3.444l0.056-19.6h3.388zM116.253 23.504c0 0 0.065-0.009 0.196-0.028 0.13-0.019 0.298-0.084 0.504-0.196 0.224-0.131 0.457-0.327 0.7-0.588 0.261-0.261 0.494-0.635 0.7-1.12 0.224-0.485 0.401-1.092 0.532-1.82 0.149-0.747 0.224-1.661 0.224-2.744 0-0.28-0.010-0.644-0.028-1.092-0.019-0.448-0.066-0.924-0.14-1.428-0.056-0.504-0.15-1.008-0.28-1.512-0.131-0.504-0.308-0.961-0.532-1.372-0.206-0.411-0.467-0.737-0.784-0.98-0.318-0.261-0.7-0.392-1.148-0.392l0.056 13.272z"></path>
<path fill="#fafafa" style="fill: var(--color2, #fafafa)" d="M127.035 6.9l1.568 11.816 1.652-11.816h3.528l-3.108 19.6h-4.144l-3.136-19.6h3.64z"></path>
<path fill="#fafafa" style="fill: var(--color2, #fafafa)" d="M134.005 26.5v-19.6h6.58v3.472h-2.968v4.424h2.996v3.64h-3.164v4.424h3.192v3.64h-6.636z"></path>
<path fill="#fafafa" style="fill: var(--color2, #fafafa)" d="M141.713 26.5v-19.6h3.5l2.996 10.136v-10.136h3.584v19.6h-3.584l-3.024-9.352v9.38l-3.472-0.028z"></path>
<path fill="#fafafa" style="fill: var(--color2, #fafafa)" d="M163.601 6.9v3.556h-3.528v16.044h-3.444v-16.044h-3.78v-3.556h10.752z"></path>
<path fill="#fafafa" style="fill: var(--color2, #fafafa)" d="M175.788 16.812c0 0.653-0.009 1.353-0.028 2.1 0 0.728-0.047 1.456-0.14 2.184-0.075 0.709-0.215 1.391-0.42 2.044s-0.513 1.232-0.924 1.736c-0.392 0.485-0.905 0.877-1.54 1.176s-1.419 0.448-2.352 0.448c-1.288 0-2.296-0.224-3.024-0.672-0.709-0.448-1.241-1.083-1.596-1.904-0.336-0.84-0.541-1.848-0.616-3.024-0.056-1.176-0.084-2.483-0.084-3.92v-10.108h3.444v9.94c0.019 1.157 0.093 2.184 0.224 3.080 0.056 0.392 0.131 0.775 0.224 1.148 0.093 0.355 0.205 0.681 0.336 0.98 0.149 0.28 0.308 0.513 0.476 0.7 0.187 0.168 0.392 0.252 0.616 0.252 0.28 0 0.513-0.084 0.7-0.252 0.205-0.187 0.373-0.42 0.504-0.7 0.149-0.299 0.261-0.625 0.336-0.98 0.093-0.373 0.168-0.756 0.224-1.148 0.112-0.896 0.159-1.923 0.14-3.080v-9.912h3.5v9.912z"></path>
<path fill="#fafafa" style="fill: var(--color2, #fafafa)" d="M180.635 6.9c0.653 0 1.269 0.103 1.848 0.308 0.597 0.205 1.129 0.532 1.596 0.98 0.467 0.429 0.849 0.989 1.148 1.68 0.317 0.691 0.523 1.531 0.616 2.52 0.131 1.213 0.093 2.231-0.112 3.052-0.187 0.803-0.42 1.447-0.7 1.932-0.317 0.597-0.7 1.064-1.148 1.4l2.324 7.728h-3.584l-1.708-6.58-0.784 0.14v6.44h-3.528l0.028-19.6h4.004zM180.131 16.588c0.429-0.037 0.784-0.14 1.064-0.308 0.28-0.187 0.513-0.42 0.7-0.7s0.317-0.597 0.392-0.952c0.075-0.355 0.112-0.719 0.112-1.092 0-0.392-0.037-0.775-0.112-1.148-0.075-0.392-0.196-0.737-0.364-1.036-0.168-0.317-0.401-0.569-0.7-0.756-0.28-0.187-0.644-0.28-1.092-0.28v6.272z"></path>
<path fill="#fafafa" style="fill: var(--color2, #fafafa)" d="M185.247 26.5v-19.6h6.58v3.472h-2.968v4.424h2.996v3.64h-3.164v4.424h3.192v3.64h-6.636z"></path>
<path fill="#fafafa" style="fill: var(--color2, #fafafa)" d="M201.047 6.9c0.019 0 0.028 0.187 0.028 0.56 0 0.355 0 0.747 0 1.176 0 0.523-0.009 1.111-0.028 1.764-0.578 0-1.166 0.056-1.764 0.168-0.578 0.093-1.101 0.252-1.568 0.476-0.448 0.205-0.821 0.457-1.12 0.756-0.28 0.299-0.42 0.644-0.42 1.036 0 0.336 0.122 0.625 0.364 0.868 0.262 0.243 0.57 0.485 0.924 0.728 0.374 0.243 0.775 0.513 1.204 0.812 0.448 0.28 0.85 0.616 1.204 1.008 0.374 0.392 0.682 0.868 0.924 1.428 0.262 0.56 0.392 1.241 0.392 2.044 0 1.195-0.224 2.221-0.672 3.080-0.429 0.84-1.026 1.54-1.792 2.1-0.746 0.541-1.624 0.943-2.632 1.204s-2.072 0.392-3.192 0.392v-3.5c0.336 0 0.775-0.056 1.316-0.168 0.542-0.112 1.064-0.299 1.568-0.56 0.523-0.261 0.971-0.607 1.344-1.036 0.374-0.429 0.551-0.961 0.532-1.596 0-0.317-0.121-0.588-0.364-0.812-0.242-0.243-0.55-0.476-0.924-0.7-0.354-0.243-0.737-0.495-1.148-0.756-0.41-0.28-0.802-0.616-1.176-1.008-0.354-0.411-0.653-0.896-0.896-1.456-0.224-0.56-0.336-1.251-0.336-2.072 0-0.859 0.243-1.652 0.728-2.38 0.504-0.728 1.148-1.353 1.932-1.876s1.662-0.933 2.632-1.232c0.99-0.299 1.97-0.448 2.94-0.448z"></path>
<path fill="none" stroke="#fafafa" style="stroke: var(--color2, #fafafa)" stroke-linejoin="miter" stroke-linecap="butt" stroke-miterlimit="4" stroke-width="1" d="M104 1.5h96"></path>
<path fill="none" stroke="#fafafa" style="stroke: var(--color2, #fafafa)" stroke-linejoin="miter" stroke-linecap="butt" stroke-miterlimit="4" stroke-width="1" d="M104 31.5h96"></path>
</symbol>
<symbol id="icon-arrow-down" viewBox="0 0 32 32">
<path fill="none" stroke="#fafafa" style="stroke: var(--color2, #fafafa)" stroke-linejoin="round" stroke-linecap="round" stroke-miterlimit="4" stroke-width="3.5556" d="M8 12l8 8 8-8"></path>
</symbol>
<symbol id="icon-arrow" viewBox="0 0 34 32">
<path d="M21.526 15.573l-5.539 5.539-0.589-0.589 5.539-5.539h-5.539v-0.834h6.962v6.962h-0.834v-5.539z"></path>
</symbol>
<symbol id="icon-search" viewBox="0 0 32 32">
<path fill="none" stroke="#fafafa" style="stroke: var(--color2, #fafafa)" stroke-linejoin="round" stroke-linecap="round" stroke-miterlimit="4" stroke-width="3.5556" d="M14.667 25.333c5.891 0 10.667-4.776 10.667-10.667s-4.776-10.667-10.667-10.667c-5.891 0-10.667 4.776-10.667 10.667s4.776 10.667 10.667 10.667z"></path>
<path fill="none" stroke="#fafafa" style="stroke: var(--color2, #fafafa)" stroke-linejoin="round" stroke-linecap="round" stroke-miterlimit="4" stroke-width="3.5556" d="M28 28l-5.8-5.8"></path>
</symbol>
<symbol id="icon-facebook" viewBox="0 0 16 32">
<path d="M14.512 0.007l-3.617-0.007c-4.064 0-6.69 3.091-6.69 7.875v3.631h-3.637c-0.314 0-0.569 0.292-0.569 0.653v5.261c0 0.361 0.255 0.652 0.569 0.652h3.637v13.275c0 0.36 0.254 0.652 0.569 0.652h4.745c0.314 0 0.569-0.292 0.569-0.652v-13.275h4.252c0.314 0 0.569-0.292 0.569-0.652l0.002-5.261c0-0.173-0.060-0.339-0.167-0.461s-0.252-0.191-0.402-0.191h-4.254v-3.078c0-1.479 0.307-2.23 1.987-2.23l2.437-0.001c0.314 0 0.568-0.292 0.568-0.652v-4.885c0-0.36-0.254-0.652-0.568-0.652z"></path>
</symbol>
<symbol id="icon-instagram" viewBox="0 0 32 32">
<path d="M16.316 32c-0.106 0-0.212 0-0.319-0-2.508 0.006-4.826-0.058-7.080-0.195-2.066-0.126-3.953-0.84-5.455-2.065-1.45-1.182-2.44-2.781-2.942-4.75-0.438-1.715-0.461-3.398-0.483-5.026-0.016-1.168-0.033-2.553-0.036-3.96 0.003-1.414 0.020-2.798 0.036-3.966 0.022-1.628 0.045-3.311 0.483-5.026 0.503-1.97 1.493-3.568 2.942-4.75 1.503-1.225 3.389-1.939 5.456-2.065 2.254-0.137 4.572-0.201 7.086-0.195 2.509-0.005 4.826 0.058 7.080 0.195 2.066 0.126 3.953 0.84 5.455 2.065 1.45 1.182 2.44 2.781 2.943 4.75 0.437 1.715 0.461 3.398 0.483 5.026 0.016 1.168 0.033 2.553 0.036 3.96v0.006c-0.003 1.408-0.020 2.792-0.036 3.96-0.022 1.628-0.045 3.311-0.483 5.026-0.503 1.97-1.493 3.568-2.943 4.75-1.502 1.225-3.389 1.939-5.455 2.065-2.159 0.131-4.376 0.195-6.768 0.195zM15.997 29.5c2.468 0.006 4.733-0.056 6.934-0.19 1.563-0.095 2.917-0.602 4.027-1.507 1.026-0.837 1.732-1.991 2.1-3.431 0.364-1.428 0.385-2.96 0.406-4.442 0.016-1.16 0.032-2.535 0.036-3.929-0.004-1.394-0.020-2.769-0.036-3.929-0.020-1.482-0.041-3.015-0.406-4.443-0.367-1.44-1.074-2.594-2.1-3.431-1.11-0.905-2.465-1.412-4.027-1.507-2.201-0.134-4.467-0.196-6.928-0.19-2.467-0.006-4.733 0.056-6.934 0.19-1.563 0.095-2.917 0.602-4.027 1.507-1.026 0.837-1.732 1.991-2.1 3.431-0.364 1.428-0.385 2.96-0.406 4.443-0.016 1.161-0.032 2.537-0.036 3.932 0.003 1.389 0.020 2.765 0.036 3.926 0.020 1.482 0.041 3.015 0.406 4.442 0.367 1.44 1.074 2.594 2.1 3.431 1.11 0.905 2.465 1.412 4.027 1.507 2.201 0.134 4.467 0.197 6.928 0.191zM15.937 23.812c-4.308 0-7.813-3.505-7.813-7.812s3.505-7.813 7.813-7.813c4.308 0 7.813 3.505 7.813 7.813s-3.505 7.812-7.813 7.812zM15.937 10.687c-2.929 0-5.313 2.383-5.313 5.313s2.383 5.312 5.313 5.312c2.93 0 5.313-2.383 5.313-5.312s-2.383-5.313-5.313-5.313zM24.625 5.687c-1.035 0-1.875 0.839-1.875 1.875s0.84 1.875 1.875 1.875c1.036 0 1.875-0.839 1.875-1.875s-0.839-1.875-1.875-1.875z"></path>
</symbol>
<symbol id="icon-twitter" viewBox="0 0 32 32">
<path d="M32 4.441c-1.19 0.583-2.458 0.97-3.78 1.158 1.36-0.908 2.398-2.334 2.886-4.053-1.268 0.845-2.668 1.442-4.16 1.775-1.204-1.433-2.92-2.321-4.792-2.321-3.632 0-6.556 3.295-6.556 7.335 0 0.581 0.044 1.14 0.152 1.672-5.454-0.297-10.28-3.219-13.522-7.671-0.566 1.098-0.898 2.354-0.898 3.707 0 2.54 1.17 4.791 2.914 6.095-1.054-0.022-2.088-0.364-2.964-0.903 0 0.022 0 0.051 0 0.080 0 3.564 2.274 6.524 5.256 7.206-0.534 0.163-1.116 0.241-1.72 0.241-0.42 0-0.844-0.027-1.242-0.125 0.85 2.904 3.262 5.039 6.13 5.109-2.232 1.952-5.066 3.128-8.134 3.128-0.538 0-1.054-0.027-1.57-0.101 2.906 2.095 6.35 3.291 10.064 3.291 12.072 0 18.672-11.178 18.672-20.868 0-0.324-0.010-0.637-0.024-0.948 1.302-1.033 2.396-2.323 3.288-3.807z"></path>
</symbol>
<symbol id="icon-vector" viewBox="0 0 320 6">
<path d="M5 2.5L0 0.113249V5.88675L5 3.5V2.5ZM315 3.5L320 5.88675V0.113249L315 2.5V3.5ZM4.5 3.5H315.5V2.5H4.5V3.5Z" fill="#FAFAFA" fill-opacity="0.15"/>
</symbol>
</defs>
</svg>
